<?xml version="1.0" encoding="UTF-8" standalone="no"?>
<svg
   width="802.07458pt"
   height="760.01947pt"
   viewBox="0 0 802.07458 760.01947"
   version="1.1"
   id="svg30"
   sodipodi:docname="codedigest_logo.svg"
   inkscape:version="1.3.2 (091e20e, 2023-11-25, custom)"
   xmlns:inkscape="http://www.inkscape.org/namespaces/inkscape"
   xmlns:sodipodi="http://sodipodi.sourceforge.net/DTD/sodipodi-0.dtd"
   xmlns="http://www.w3.org/2000/svg"
   xmlns:svg="http://www.w3.org/2000/svg">
  <defs
     id="defs30" />
  <sodipodi:namedview
     id="namedview30"
     pagecolor="#ffffff"
     bordercolor="#000000"
     borderopacity="0.25"
     inkscape:showpageshadow="2"
     inkscape:pageopacity="0.0"
     inkscape:pagecheckerboard="0"
     inkscape:deskcolor="#d1d1d1"
     inkscape:document-units="pt"
     inkscape:zoom="0.47753906"
     inkscape:cx="532.9407"
     inkscape:cy="504.67076"
     inkscape:window-width="1440"
     inkscape:window-height="890"
     inkscape:window-x="-6"
     inkscape:window-y="-6"
     inkscape:window-maximized="1"
     inkscape:current-layer="svg30" />
  <g
     id="#f6f4f2ff"
     transform="translate(-110.96458,-123.98)"
     style="fill:#e6e6e6">
    <path
       fill="#f6f4f2"
       opacity="1"
       d="m 550.24,196.26 c 6.19,-1.48 12.97,4.26 11.87,10.75 0.2,8.22 -11.27,12.5 -16.88,6.76 -6.19,-5.24 -2.72,-16.07 5.01,-17.51 z"
       id="path1"
       style="fill:#e6e6e6" />
    <path
       fill="#f6f4f2"
       opacity="1"
       d="m 501.45,256.03 c 11.76,-9.97 23.92,-19.52 36.05,-29.03 2.42,2.13 5.42,3.4 8.49,4.3 0.01,15.46 -0.02,30.95 -0.87,46.38 -4.94,1.19 -9.17,4.29 -12.38,8.15 -10.11,-5.28 -20.35,-10.39 -30.68,-15.22 0.29,-4.87 0.72,-9.81 -0.61,-14.58 z"
       id="path2"
       style="fill:#e6e6e6" />
    <path
       fill="#f6f4f2"
       opacity="1"
       d="m 558.25,231.49 c 2.94,-0.47 6.01,-3.92 8.77,-1.44 18.81,11.6 38.7,21.67 59.96,27.94 2.4,0.18 1.4,3.33 -0.4,3.58 -18.44,7.73 -36.56,16.28 -55.19,23.53 -3.35,-4.23 -8.38,-6.53 -13.39,-8.15 0.08,-15.15 -0.2,-30.31 0.25,-45.46 z"
       id="path3"
       style="fill:#e6e6e6" />
    <path
       fill="#f6f4f2"
       opacity="1"
       d="m 652.3,251.51 c 6.89,-0.65 12.68,7.14 9.76,13.48 -2.08,7.03 -12.57,8.63 -16.84,2.78 -5.36,-5.71 -0.69,-16.17 7.08,-16.26 z"
       id="path4"
       style="fill:#e6e6e6" />
    <path
       fill="#f6f4f2"
       opacity="1"
       d="m 477.39,254.37 c 8.98,-1.57 14.61,11.08 7.87,16.9 -5.18,5.97 -16.57,1.67 -16.34,-6.24 -0.84,-5.15 3.38,-10.12 8.47,-10.66 z"
       id="path5"
       style="fill:#e6e6e6" />
    <path
       fill="#f6f4f2"
       opacity="1"
       d="m 576.41,296.67 c 18.15,-7.62 36.19,-15.49 54.24,-23.34 0.79,1.51 2.39,2.8 2.46,4.59 -7.01,14.7 -14.58,29.15 -21.51,43.9 -6.13,-0.27 -12.13,1.56 -17.2,4.96 -6.51,-5.02 -13.15,-9.87 -19.61,-14.97 1.65,-4.86 2.76,-10.02 1.62,-15.14 z"
       id="path6"
       style="fill:#e6e6e6" />
    <path
       fill="#f6f4f2"
       opacity="1"
       d="m 495.92,281.71 c 10.92,4.62 21.29,10.51 32.05,15.52 -0.3,5.78 0.09,11.79 3.22,16.85 -5.97,7.69 -12.82,14.65 -19.01,22.17 -1.29,1.63 -3.29,-0.49 -4.79,-0.75 -3.43,-18.01 -7.55,-35.88 -11.47,-53.79 z"
       id="path7"
       style="fill:#e6e6e6" />
    <path
       fill="#f6f4f2"
       opacity="1"
       d="m 550.24,291.25 c 5.79,-1.53 12.52,3.6 11.85,9.75 0.97,8.02 -10.12,13.34 -15.89,7.81 -6.48,-4.73 -3.8,-16.05 4.04,-17.56 z"
       id="path8"
       style="fill:#e6e6e6" />
    <path
       fill="#f6f4f2"
       opacity="1"
       d="m 540.38,322.94 c 8.27,4.72 18.61,3.7 26.5,-1.14 6.22,4.54 12.29,9.29 18.4,13.98 2.09,1.55 -0.13,4.15 -0.55,6.05 -20.42,2.2 -40.61,6.26 -61.01,8.68 -0.88,-1.91 -1.83,-3.78 -2.9,-5.58 6.72,-7.15 13,-14.69 19.56,-21.99 z"
       id="path9"
       style="fill:#e6e6e6" />
    <path
       fill="#f6f4f2"
       opacity="1"
       d="m 606.28,337.26 c 3.46,-0.79 7.53,-0.37 10.01,2.43 4.74,4.07 3.45,12.68 -2,15.54 -5.29,3.37 -13.49,0.12 -14.54,-6.2 -1.21,-4.86 1.78,-10.2 6.53,-11.77 z"
       id="path10"
       style="fill:#e6e6e6" />
    <path
       fill="#f6f4f2"
       opacity="1"
       d="m 498.39,349.47 c 7.69,-2.32 15.24,7.07 11.19,14.11 -2.56,6.07 -11.42,7.47 -15.87,2.72 -5.53,-4.97 -2.71,-15.46 4.68,-16.83 z"
       id="path11"
       style="fill:#e6e6e6" />
    <path
       fill="#f6f4f2"
       opacity="1"
       d="m 201.56,440.21 c 0.46,-6.7 6.6,-12.63 13.42,-12.23 63.68,-0.06 127.35,-0.03 191.02,-0.02 0,8.43 0,16.87 0,25.3 -56.69,-0.01 -113.38,-0.03 -170.07,0.02 -9.14,0.1 -17.49,6.3 -21.12,14.54 -5.6,13.42 -8.22,28.22 -13.7,41.46 0.88,-23.01 0.07,-46.06 0.45,-69.07 z"
       id="path12"
       style="fill:#e6e6e6" />
  </g>
  <g
     id="#181d1dff"
     transform="translate(-110.96458,-123.98)">
    <path
       fill="#181d1d"
       opacity="1"
       d="m 406.01,139.93 c 0.59,-8.54 8.44,-15.67 16.93,-15.93 73.69,-0.02 147.39,0.02 221.08,-0.02 5.45,0.11 10.92,2.35 14.77,6.23 22.45,22.54 45.04,44.96 67.49,67.51 3.37,3.54 5.78,8.29 5.74,13.26 -0.06,55.29 0.02,110.57 -0.04,165.85 -7.31,7.89 -13.86,16.5 -21.52,24.02 0.49,-60.98 -0.16,-121.99 0.33,-182.97 -16.86,-0.62 -33.76,0.05 -50.63,-0.35 -9.66,-0.56 -18.73,-8.56 -19.15,-18.46 -0.02,-17.45 0,-34.89 -0.01,-52.34 -71.04,0.1 -142.08,0.05 -213.13,0.04 0.11,124.07 0,248.14 0.06,372.21 -0.51,7 6.14,13.4 13.05,13.03 26.24,-0.01 52.49,-0.03 78.73,0 -7.1,24.24 -14.03,48.53 -20.91,72.82 -0.84,2.3 -2.9,3.83 -4.67,5.4 -16.02,12.7 -33.71,23.29 -52.44,31.47 -4.71,1.9 -9.49,4.16 -14.65,4.3 -75.37,-0.02 -150.74,0.03 -226.1,-0.02 -11.64,-0.39 -22.34,-10.15 -22.94,-21.92 0,-81.04 -0.01,-162.09 0.01,-243.13 0.54,-9.72 9.37,-17.39 18.88,-17.82 12.03,-0.26 24.08,-0.04 36.11,-0.11 -0.91,-23.11 5.98,-46.53 19.77,-65.16 18.11,-25.18 48.06,-40.64 78.92,-42 0.6,-8.2 -2.03,-17.45 1.46,-24.94 3.11,-0.54 5.58,1.19 7.6,3.34 15.12,13.25 30.38,26.35 45.56,39.52 1.87,2.04 2.42,5.62 -0.01,7.5 -15.76,13.54 -31.58,27.04 -47.34,40.59 -2.1,2.62 -7.34,1.88 -7.34,-1.91 -0.16,-6.93 -0.19,-13.88 0.05,-20.81 -14.51,-0.86 -29.29,2.44 -42.06,9.39 -19.83,10.84 -34.33,31.69 -35.7,54.48 9.73,0.07 19.47,-0.14 29.2,0.1 9.5,0.53 16.68,7.8 21.57,15.33 4.44,6.68 8.73,13.48 12.59,20.51 29.58,0.14 59.15,0.02 88.73,0.06 0.01,-86.36 -0.01,-172.71 0.01,-259.07 M 201.56,440.21 c -0.38,23.01 0.43,46.06 -0.45,69.07 5.48,-13.24 8.1,-28.04 13.7,-41.46 3.63,-8.24 11.98,-14.44 21.12,-14.54 56.69,-0.05 113.38,-0.03 170.07,-0.02 0,-8.43 0,-16.87 0,-25.3 -63.67,-0.01 -127.34,-0.04 -191.02,0.02 -6.82,-0.4 -12.96,5.53 -13.42,12.23 z"
       id="path13" />
    <path
       fill="#181d1d"
       opacity="1"
       d="m 532.28,190.34 c 8.09,-10.36 24.43,-12.6 34.91,-4.59 10.85,7.48 12.48,22.86 6.89,33.93 18.08,11.88 37.77,21.21 58.55,27.29 8.76,-13.11 30.14,-13.7 39.64,-1.14 8.39,10.51 6.5,27.95 -4.7,35.75 -6.62,5.11 -15.91,5.92 -23.61,2.98 -7.22,13.68 -13.52,27.88 -20.97,41.44 9.21,6 13.56,18.31 9.79,28.7 -2.61,8.83 -10.71,15.56 -19.84,16.61 -11.75,2.08 -24.21,-5.87 -27.28,-17.4 -20.12,3.19 -40.34,5.79 -60.45,8.99 -1.69,9.4 -8.84,17.78 -18.2,20.15 -12.44,4 -27.11,-4.38 -30.14,-17.06 -4.15,-12.84 4.87,-28.06 18.23,-30.27 -3.32,-15.96 -6.92,-31.86 -10.34,-47.79 -7.76,1.73 -16.35,0.08 -22.43,-5.19 -9.2,-7.81 -10.99,-22.51 -3.99,-32.35 7.72,-12.04 25.61,-13.73 36.31,-4.72 11.25,-9.61 23.02,-18.62 34.5,-27.97 -3.56,-8.9 -3.11,-19.73 3.13,-27.36 m 17.96,5.92 c -7.73,1.44 -11.2,12.27 -5.01,17.51 5.61,5.74 17.08,1.46 16.88,-6.76 1.1,-6.49 -5.68,-12.23 -11.87,-10.75 m -48.79,59.77 c 1.33,4.77 0.9,9.71 0.61,14.58 10.33,4.83 20.57,9.94 30.68,15.22 3.21,-3.86 7.44,-6.96 12.38,-8.15 0.85,-15.43 0.88,-30.92 0.87,-46.38 -3.07,-0.9 -6.07,-2.17 -8.49,-4.3 -12.13,9.51 -24.29,19.06 -36.05,29.03 m 56.8,-24.54 c -0.45,15.15 -0.17,30.31 -0.25,45.46 5.01,1.62 10.04,3.92 13.39,8.15 18.63,-7.25 36.75,-15.8 55.19,-23.53 1.8,-0.25 2.8,-3.4 0.4,-3.58 -21.26,-6.27 -41.15,-16.34 -59.96,-27.94 -2.76,-2.48 -5.83,0.97 -8.77,1.44 m 94.05,20.02 c -7.77,0.09 -12.44,10.55 -7.08,16.26 4.27,5.85 14.76,4.25 16.84,-2.78 2.92,-6.34 -2.87,-14.13 -9.76,-13.48 m -174.91,2.86 c -5.09,0.54 -9.31,5.51 -8.47,10.66 -0.23,7.91 11.16,12.21 16.34,6.24 6.74,-5.82 1.11,-18.47 -7.87,-16.9 m 99.02,42.3 c 1.14,5.12 0.03,10.28 -1.62,15.14 6.46,5.1 13.1,9.95 19.61,14.97 5.07,-3.4 11.07,-5.23 17.2,-4.96 6.93,-14.75 14.5,-29.2 21.51,-43.9 -0.07,-1.79 -1.67,-3.08 -2.46,-4.59 -18.05,7.85 -36.09,15.72 -54.24,23.34 m -80.49,-14.96 c 3.92,17.91 8.04,35.78 11.47,53.79 1.5,0.26 3.5,2.38 4.79,0.75 6.19,-7.52 13.04,-14.48 19.01,-22.17 -3.13,-5.06 -3.52,-11.07 -3.22,-16.85 -10.76,-5.01 -21.13,-10.9 -32.05,-15.52 m 54.32,9.54 c -7.84,1.51 -10.52,12.83 -4.04,17.56 5.77,5.53 16.86,0.21 15.89,-7.81 0.67,-6.15 -6.06,-11.28 -11.85,-9.75 m -9.86,31.69 c -6.56,7.3 -12.84,14.84 -19.56,21.99 1.07,1.8 2.02,3.67 2.9,5.58 20.4,-2.42 40.59,-6.48 61.01,-8.68 0.42,-1.9 2.64,-4.5 0.55,-6.05 -6.11,-4.69 -12.18,-9.44 -18.4,-13.98 -7.89,4.84 -18.23,5.86 -26.5,1.14 m 65.9,14.32 c -4.75,1.57 -7.74,6.91 -6.53,11.77 1.05,6.32 9.25,9.57 14.54,6.2 5.45,-2.86 6.74,-11.47 2,-15.54 -2.48,-2.8 -6.55,-3.22 -10.01,-2.43 m -107.89,12.21 c -7.39,1.37 -10.21,11.86 -4.68,16.83 4.45,4.75 13.31,3.35 15.87,-2.72 4.05,-7.04 -3.5,-16.43 -11.19,-14.11 z"
       id="path14" />
    <path
       fill="#181d1d"
       opacity="1"
       d="m 465.36,406.41 c 63.19,-0.61 126.45,-0.02 189.66,-0.28 4.09,-0.41 9.24,2.25 9.04,6.86 0.41,3.91 -3.09,7.33 -6.98,7.01 -63.38,-0.01 -126.77,0.02 -190.14,-0.03 -7.6,-0.14 -9.55,-12.15 -1.58,-13.56 z"
       id="path15" />
    <path
       fill="#181d1d"
       opacity="1"
       d="m 464.23,441.12 c 51.57,-0.23 103.18,-0.12 154.75,-0.06 8.03,1.11 7.03,13.8 -1.11,13.63 -50.29,0.14 -100.61,0.1 -150.9,0.02 -7.42,0.47 -10.01,-11.39 -2.74,-13.59 z"
       id="path16" />
    <path
       fill="#181d1d"
       opacity="1"
       d="m 463.39,476.38 c 37.09,-0.9 74.48,-0.09 111.68,-0.4 7.5,-0.48 7.26,13.06 -0.04,13.02 -36.34,-0.05 -72.69,0.09 -109.03,-0.07 -6.46,-0.41 -8.66,-9.79 -2.61,-12.55 z"
       id="path17" />
    <path
       fill="#181d1d"
       opacity="1"
       d="m 591.26,736.27 c 7.58,-2.01 16.44,4.55 14.92,12.76 -0.87,10.31 -15.92,13.46 -22,5.77 -5.79,-6.29 -1.4,-17.53 7.08,-18.53 z"
       id="path18" />
    <path
       fill="#181d1d"
       opacity="1"
       d="m 476,740.91 c 15.3,0.26 30.65,-0.4 45.93,0.43 18.23,1.43 36.05,12.32 43.28,29.5 7.07,17.05 6.87,37.7 -2.46,53.87 -9.3,15.94 -27.79,24.52 -45.76,25.32 -13.66,0.25 -27.33,-0.06 -40.99,0.13 0,-36.42 0,-72.83 0,-109.25 M 496.78,759 c 0.18,24.52 -0.21,49.06 0.14,73.57 13.01,-0.48 27.53,1.25 38.64,-7.02 18.04,-13.94 17.91,-45.3 0.54,-59.7 -11.13,-9.02 -26.07,-6.55 -39.32,-6.85 z"
       id="path19" />
    <path
       fill="#181d1d"
       opacity="1"
       d="m 872.12,746.8 c 6.89,-0.11 13.8,-0.22 20.7,0.04 -0.5,7.41 0.11,14.85 -0.38,22.26 6.48,0.26 12.98,0.08 19.47,0.07 0.12,5.32 -0.05,10.65 0.09,15.97 -6.45,-0.06 -12.89,0.1 -19.33,-0.09 0.19,14.27 -0.65,28.62 0.5,42.85 2.05,8.09 12.32,8.04 18.76,5.88 0.25,5.36 1.26,10.68 1.09,16.08 -10.97,4.31 -24.72,3.99 -34.19,-3.61 -5.23,-4.49 -6.58,-11.68 -6.61,-18.24 0.04,-14.32 0.02,-28.64 0.01,-42.96 -5.75,0.13 -11.49,0.06 -17.23,0.04 1.38,-5.25 2.16,-10.64 3.22,-15.96 4.68,0.14 9.37,0.11 14.06,0.11 -0.14,-7.48 0.17,-14.97 -0.16,-22.44 z"
       id="path20" />
    <path
       fill="#181d1d"
       opacity="1"
       d="m 634.96,770.96 c 11.62,-5.87 25.4,-4.61 37.21,0 6.69,-2.08 13.92,-0.34 20.83,-1.24 -0.01,24.76 0,49.52 0,74.28 -0.29,11.45 -3.29,23.89 -12.74,31.29 -16.79,12.98 -40.29,9.73 -58.43,1.43 1.22,-5.97 3.64,-11.62 5.38,-17.45 10.72,5.47 23.8,8.93 35.46,4.41 8.74,-3.83 10.67,-14.34 10.35,-22.89 -12.2,11.63 -32.89,11.63 -45.38,0.54 -10.39,-9.18 -12.8,-24.07 -11.87,-37.26 0.27,-13.23 6.77,-27.26 19.19,-33.11 m 2.39,27.33 c -2.64,9.97 -1.86,22.09 5.43,29.97 8.36,8.1 22.34,5 29.2,-3.53 0.19,-11.86 0.18,-23.74 0.06,-35.59 -5.42,-3.95 -12.29,-6.7 -19.1,-6.02 -7.83,1.04 -13.84,7.69 -15.59,15.17 z"
       id="path21" />
    <path
       fill="#181d1d"
       opacity="1"
       d="m 719.2,775.21 c 13.55,-10.91 34.73,-10.7 48.02,0.53 11.32,10.04 13.35,26.38 11.73,40.64 -18.33,-0.05 -36.66,0.19 -54.99,-0.12 0.35,8.62 6.86,16.27 14.92,18.96 10.22,3.58 21.41,0.47 30.86,-3.95 1.8,4.82 3.47,9.71 5.06,14.62 -19.35,9.68 -47.54,10.95 -62.08,-7.65 -13.51,-18.48 -12.2,-48.39 6.48,-63.03 m 13.41,10.49 c -5.65,3.34 -8.58,9.98 -8.93,16.35 12.09,0 24.18,0.04 36.27,-0.04 -0.81,-4.6 -1.54,-9.52 -4.67,-13.2 -5.43,-6.42 -15.67,-7.66 -22.67,-3.11 z"
       id="path22" />
    <path
       fill="#181d1d"
       opacity="1"
       d="m 794.7,776.69 c 14.35,-13.37 36.2,-10.72 53.13,-4.32 0.54,5.16 -1.7,10.73 -2.76,15.94 -9.23,-3.35 -19.17,-5.61 -29.01,-4.12 -3.29,0.59 -6.69,3.11 -6.5,6.78 0.1,3.97 4.19,6.05 7.55,6.95 9.88,2.66 21.04,3.76 28.71,11.27 10.96,10.69 7.48,31.56 -6.26,38.34 -16.36,8.38 -36.49,5.73 -52.69,-1.76 1.61,-5.58 3.5,-11.09 5.34,-16.6 10.46,4.68 22.87,9.07 34.22,5.28 5.45,-1.32 7.68,-9.22 2.62,-12.41 -9.03,-5.28 -20.59,-3.79 -29.45,-9.67 -12.06,-7.01 -14.64,-25.72 -4.9,-35.68 z"
       id="path23" />
    <path
       fill="#181d1d"
       opacity="1"
       d="m 583.38,769.27 c 6.85,-0.06 13.72,0.14 20.58,-0.1 0.09,26.98 0.01,53.97 0.04,80.95 -6.9,-0.1 -13.82,0.17 -20.71,-0.14 0.32,-26.9 0.1,-53.81 0.09,-80.71 z"
       id="path24" />
  </g>
  <g
     id="#f7801aff"
     transform="translate(-110.96458,-123.98)">
    <path
       fill="#f7801a"
       opacity="1"
       d="m 678.67,133.23 c 38.08,4.9 75.55,19.84 103.85,46.26 31.46,28.65 52.61,68.97 56.49,111.51 3.68,32.9 -2.2,66.51 -15.21,96.86 -18.16,42.7 -46.99,79.84 -77.8,114.13 -35.99,39.37 -76.76,74.32 -121.25,103.76 -27.32,18.4 -55.6,35.51 -85.47,49.45 -51.15,24.31 -107.3,40.74 -164.36,38.62 -15.09,-1.4 -30.94,-1.78 -45.05,-7.58 41.5,-0.85 82.31,-13.3 118.97,-32.44 51.94,-27.16 97.91,-64.43 140.75,-104.07 -16.64,-1.34 -32.64,-6.21 -48.79,-10 0.11,-0.34 0.34,-1.02 0.45,-1.35 8.95,-4.25 17.62,-9.07 26.47,-13.53 53.5,-27.45 103.32,-62.63 145.01,-106.11 31.38,-32.92 59.98,-71.89 67.4,-117.82 5.71,-32.51 -2.47,-67.77 -24.23,-92.96 -24.27,-26.38 -51.18,-50.19 -77.23,-74.73 z"
       id="path25" />
  </g>
  <g
     id="#16679aff"
     transform="translate(-110.96458,-123.98)">
    <path
       fill="#16679a"
       opacity="1"
       d="M 587,653.03 C 674.7,604.63 752.37,537.08 810.36,455.36 791.73,513 757.9,565.4 714.77,607.77 c -36.57,35.15 -80.74,63.06 -129.58,77.48 -33.34,9.92 -68.47,14.44 -103.2,12.07 -1.32,0.16 -2.44,-0.14 -3.37,-0.91 38.13,-8.6 73.96,-25.2 108.38,-43.38 z"
       id="path26" />
    <path
       fill="#16679a"
       opacity="1"
       d="m 355.35,735.36 c 6.87,-0.11 13.74,0.1 20.6,-0.15 0.11,38.33 0.02,76.65 0.05,114.98 -6.93,-0.15 -13.88,0.22 -20.8,-0.19 0.13,-2.45 0.29,-4.9 0.45,-7.34 -12.93,13.73 -36.86,12.82 -49.43,-0.91 -7.54,-8.98 -9.52,-21.35 -9.24,-32.75 -0.12,-13.91 5.67,-28.57 17.64,-36.38 12.03,-7.94 27.94,-6.64 40.58,-0.82 0.38,-12.14 0.01,-24.29 0.15,-36.44 m -25.45,49.49 c -9.57,4.65 -12.48,16.32 -11.91,26.14 0.38,8.32 2.42,18.28 10.31,22.71 9.25,4.67 21.31,0.56 26.93,-7.8 0.12,-12.54 0.43,-25.13 -0.18,-37.64 -7.53,-4.08 -16.89,-7.57 -25.15,-3.41 z"
       id="path27" />
    <path
       fill="#16679a"
       opacity="1"
       d="m 122.29,759.37 c 17.2,-22.47 50.74,-25.67 74.87,-13.23 -1.44,5 -2.51,10.11 -4.11,15.07 -14.07,-4.38 -30.43,-7.06 -43.69,1.1 -17.31,10.83 -21.12,35.46 -12.84,53.1 5.19,11.65 17.81,19.19 30.49,18.64 9.28,0.64 18.45,-1.55 27.12,-4.68 1.88,5.38 3.92,10.81 5.01,16.42 -12.23,5.41 -25.72,7.85 -39.06,6.46 -18.55,-0.85 -36.27,-12.52 -43.73,-29.63 -8.5,-20.21 -7.24,-45.3 5.94,-63.25 z"
       id="path28" />
    <path
       fill="#16679a"
       opacity="1"
       d="m 242.3,767.4 c 14.58,-1.67 30.59,3.96 38.82,16.59 11.6,18.52 9.23,46.61 -8.74,60.33 -16.48,12.31 -42.36,11.2 -56.5,-4.26 -12.05,-13.73 -14.16,-34.93 -6.09,-51.16 6.11,-12.24 18.98,-20.35 32.51,-21.5 m 0.06,17 c -8.38,1.55 -14.36,9.17 -15.78,17.29 -1.57,9.49 -0.87,20.37 5.81,27.9 7.7,8.34 23.03,7.69 29.72,-1.6 6.23,-8.63 6.27,-20.49 3.15,-30.29 -2.81,-9.48 -13.24,-15.67 -22.9,-13.3 z"
       id="path29" />
    <path
       fill="#16679a"
       opacity="1"
       d="m 398.19,779.19 c 14.25,-15.82 42.68,-16.3 56.5,0.26 8.56,10.2 9.34,24.12 8.31,36.8 -18.47,0.58 -37.07,-0.38 -55.52,0.46 1.36,8.57 7.59,16.15 15.91,18.77 10.04,3.03 20.98,0.31 30.06,-4.4 1.63,4.92 3.11,9.9 4.75,14.83 -12.08,6.57 -26.49,8.01 -39.91,5.75 -13.26,-2.52 -24.7,-12.51 -28.55,-25.51 -4.97,-15.66 -3.16,-34.61 8.45,-46.96 m 8.74,22.8 c 12.11,0.2 24.22,-0.03 36.34,0.09 0.71,-10.14 -7.91,-19.94 -18.33,-19.09 -10.07,0.17 -17.18,9.57 -18.01,19 z"
       id="path30" />
  </g>
</svg>
